<?xml version="1.0" encoding="UTF-8"?>
<svg id="Layer_2" data-name="Layer 2" xmlns="http://www.w3.org/2000/svg" viewBox="0 0 62.24 62.24">
  <defs>
    <style>
      .cls-1 {
        fill: #c1c1c1;
        stroke: #000;
        stroke-miterlimit: 10;
        stroke-width: .79px;
      }
    </style>
  </defs>
  <g id="Layer_1-2" data-name="Layer 1">
    <g>
      <path class="cls-1" d="M31.12,.4C14.16,.4,.4,14.15,.4,31.12s13.76,30.73,30.73,30.73,30.72-13.75,30.72-30.73S48.09,.4,31.12,.4Zm0,51.39c-11.41,0-20.66-9.25-20.66-20.67S19.71,10.46,31.12,10.46s20.66,9.25,20.66,20.66-9.25,20.67-20.66,20.67Z"/>
      <path class="cls-1" d="M51.79,31.12c0,11.42-9.25,20.67-20.66,20.67S10.46,42.53,10.46,31.12,19.71,10.46,31.12,10.46s20.66,9.25,20.66,20.66Z"/>
    </g>
  </g>
</svg>